<svg id="svg" viewBox="0 0 349 403" xmlns="http://www.w3.org/2000/svg" xmlns:xlink="http://www.w3.org/1999/xlink" version="1.1" width="174.5" height="201.5" preserveAspectRatio="xMidYMid meet" buffered-rendering="static" style="background: rgb(255, 255, 255);"><g><path d="M 189 15.6 C 188.2 15.5 180.8 15.7 172.5 16.1 C 164.3 16.4 155 17.4 152 18.3 C 149 19.1 144.3 20.7 141.5 21.7 C 138.8 22.7 133.5 25.3 129.8 27.3 C 126 29.3 122.7 31.6 122.4 32.3 C 122.1 32.9 122.3 34 123 34.5 C 123.9 35.2 124.4 35.1 124.6 34.3 C 124.8 33.6 125.5 33.2 126 33.5 C 126.6 33.8 130.3 32.9 134.3 31.6 C 138.2 30.3 143.8 28.7 146.5 28 C 149.7 27.2 153.8 26.9 157.8 27.3 C 161.7 27.8 164 27.6 164 27 C 164 26.5 164.9 26 166 26 C 167.3 26 168 26.7 168 27.8 C 167.9 29.1 168.2 29.2 169.2 28.4 C 169.9 27.8 171.9 27.4 173.5 27.5 C 175.2 27.6 179.2 28.1 182.5 28.5 C 186 29 189.1 30 189.8 30.9 L 191.2 32.5 L 190.6 30.8 C 190.3 29.8 190.2 29 190.5 29 C 190.8 29 192.5 30 194.3 31.3 C 196 32.5 197.6 33.8 197.8 34.3 C 197.9 34.7 198.7 35 199.5 35 C 200.3 35 201 35.5 201 36 C 201 36.6 202.6 38 204.7 39.3 C 206.7 40.5 208.7 42.5 209.2 43.8 C 209.7 45.3 210.5 45.8 211.8 45.4 C 213.1 44.9 213.3 45.2 212.8 46.4 C 212.3 47.4 212.5 48.2 213.5 48.5 C 214.4 48.8 214.8 49.6 214.3 50.8 C 214 51.8 214.3 53 215.3 53.8 C 216.3 54.5 216.6 55.2 216 55.5 C 215.4 55.8 215.6 56.6 216.5 57.5 C 217.5 58.5 217.7 59.6 217.1 60.8 C 216.7 61.7 216.5 63.2 216.8 64 C 217.1 65.1 217.6 64.9 218.6 63 C 219.6 61.1 219.9 60.9 220 62.3 C 220 63.2 219.5 65 218.9 66.3 C 218.3 67.5 218.2 69.2 218.6 70 C 219 70.8 219.4 73.4 219.4 75.7 C 219.5 77.9 219.2 79.6 218.8 79.4 C 218.3 79.2 218 79.5 218 80 C 218 80.6 218.3 81 218.8 81 C 219.2 81 219.5 82.4 219.5 84 C 219.5 85.6 219.2 87 218.8 87 C 218.3 87 218.1 89.7 218.3 92.9 C 218.4 96.1 218.2 98.6 217.8 98.4 C 217.3 98.2 215.5 97.8 213.8 97.5 L 210.5 97 L 208.6 101.3 C 207.6 103.6 206 106.3 205.1 107.2 C 204.2 108.2 203.1 108.6 202.5 108.2 L 201.5 107.5 L 202.5 108.9 C 203.2 109.8 203.1 110.4 202.2 110.9 C 201.3 111.3 201.2 112.2 201.9 114 C 202.4 115.4 202.9 115.9 202.9 115.3 C 203 114.6 203.5 114 204 114 C 204.6 114 205 114.7 205 115.5 C 205 116.3 205.5 117 206 117 C 206.6 117 206.3 119 205.4 121.8 C 204.4 124.5 204 127.6 204.4 129.3 C 204.8 131.1 205.6 131.9 206.7 131.8 C 207.6 131.6 209.5 129.9 210.8 128 L 213.3 124.5 L 212.6 128.5 C 212.2 130.7 211.7 134.8 211.4 137.5 C 211.1 141.5 211.3 142.8 212.7 143.8 C 214 144.7 214.1 145.3 213.3 145.6 C 212.6 145.8 212 146.7 212 147.5 C 212 148.5 212.5 148.8 213.7 148.3 C 215.2 147.6 215.3 148 214.7 151.5 C 214.3 153.7 213.9 155.6 213.7 155.7 C 213.6 155.9 211.6 155.1 209.3 154 C 206.7 152.8 205.2 151.5 205.5 150.8 C 205.9 149.8 205 149.6 202.3 150 C 200.3 150.3 198.5 151.1 198.3 151.8 C 198.2 152.4 198.6 153 199.3 153 C 199.9 153 199.4 153.9 198 155 C 196.6 156.1 196.1 157 196.8 157 C 197.4 157 198.7 157.7 199.5 158.5 C 200.3 159.3 201 161.6 201 163.5 C 201 166.6 200.7 167 198.5 167 C 197.1 167 196 167.5 196 168 C 196 168.6 196.7 168.8 197.5 168.5 C 198.4 168.2 199 168.6 199 169.5 C 199 170.3 198.1 171 197 171 C 195.9 171 195 171.6 195 172.3 C 195.1 172.9 194.3 174.2 193.4 175 C 191.9 176.3 191.6 176.3 190.1 174.5 L 188.4 172.5 L 188.7 177.3 C 188.9 180 188.6 182 188 182 C 187.5 182 187 182.3 187 182.8 C 187 183.2 187.9 184.5 189 185.8 C 190.7 187.6 190.8 188.1 189.5 188.5 L 188 189 L 186 188.5 C 184.9 188.2 183.8 188.5 183.5 189 C 183.2 189.6 183.8 190.6 184.8 191.4 C 186.2 192.6 186.3 193.2 185.3 194.9 C 184.6 196.1 184 197.2 184 197.5 C 184 197.8 184.9 198.5 186 199 C 187.7 199.9 187.9 199.7 187.5 198 C 187.2 196.9 187.2 195.2 187.5 194.3 C 187.8 193.2 189.1 192.4 191 192.3 C 193.3 192.1 194.1 192.5 194.5 194 C 194.8 195.1 195.5 195.8 196 195.5 C 196.6 195.2 197.3 197.1 197.6 199.8 C 198 202.4 199.3 206.9 200.6 209.8 C 201.9 212.6 202.8 215.5 202.5 216 C 202.2 216.6 201.7 217 201.3 217 C 200.8 217 199.9 215.9 199.3 214.5 C 198.6 213.1 197.4 212 196.8 212 C 195.8 212 195.8 212.2 196.7 212.8 C 197.3 213.2 198.4 215.8 199 218.5 C 199.6 221.4 199.7 223.7 199.2 224 C 198.7 224.3 197.9 225.6 197.5 227 C 197.1 228.7 197.3 229.7 198.2 230.1 C 199.2 230.6 199 231.3 197.2 233.1 C 196 234.4 194.7 237.1 194.4 239 C 194.1 240.9 193.2 245 192.3 248 C 191.4 251 190.4 254 189.9 254.5 C 189.5 255.1 189.2 255.7 189.2 256 C 189.1 256.3 188.7 257.7 188.1 259.3 C 187.3 261.3 186.5 261.9 185 261.5 C 183.7 261.2 182.8 261.6 182.3 262.8 C 182 263.7 181.8 265 181.9 265.5 C 182 266.1 181.5 266.8 180.8 267.2 C 180.1 267.6 179.2 268 178.8 268 C 178.3 268 178.2 267.1 178.5 266 C 178.8 264.7 178.5 264 177.5 264 C 176.7 264 175 265 173.8 266.1 C 171.8 267.9 171.7 268.4 173 269.1 C 174.2 269.8 174.1 270.2 172 271.7 C 170.6 272.7 169.3 273.5 169 273.5 C 168.7 273.5 168.1 273.9 167.5 274.2 C 167 274.6 166.1 274.6 165.7 274.2 C 165.2 273.8 163.2 273.7 161.2 273.9 C 159.2 274.1 156 275.2 154.3 276.4 C 152.5 277.5 151 279.1 151 279.8 C 151 280.4 150.6 281 150 281 C 149.5 281 146.6 282.1 143.8 283.4 C 140.9 284.7 136.3 286.6 133.5 287.6 C 130.8 288.6 128.3 289.5 128 289.5 C 127.7 289.6 126.2 290 124.5 290.4 C 122.9 290.8 120.2 291.8 118.5 292.5 C 116.9 293.2 113.9 293.8 112 293.9 C 110.1 293.9 108.1 294.4 107.5 294.9 C 106.9 295.5 105.9 295.5 105 295 C 104.2 294.4 102.2 294.2 100.5 294.5 C 98.9 294.8 95.3 295.2 92.5 295.6 C 89.8 295.9 87.1 296.4 86.5 296.7 C 86 297 86.7 298 88.1 298.9 C 89.5 299.8 92.9 302 95.6 303.8 C 98.3 305.6 102.5 307.8 105 308.7 C 107.5 309.7 110.6 311.4 112 312.7 C 113.4 313.9 115.5 315.2 116.8 315.5 C 118 315.8 120.6 317.7 122.5 319.8 C 124.5 321.8 126.1 324.1 126 324.8 C 126 325.4 127 326.9 128.3 328 C 129.5 329.1 129.9 330 129.3 330 C 128.6 330 128.2 330.5 128.5 331 C 128.8 331.6 129.6 331.2 130.3 330.3 C 131.4 328.9 131.9 328.8 132.3 329.8 C 132.7 330.4 132.6 331.2 132 331.5 C 131.5 331.8 132.2 333 133.7 334.3 C 135.5 335.8 136.5 336.1 136.7 335.3 C 136.9 334.6 137.7 334 138.5 334 C 139.3 334 140 334.7 140 335.5 C 140 336.3 140.6 337 141.3 337 C 141.9 337 143.1 336.5 143.9 335.8 C 145.1 334.7 145.2 334.8 144.6 336.3 C 144.2 337.4 144.6 338.2 145.8 338.7 C 146.7 339 148.4 339.4 149.5 339.4 C 150.8 339.5 151.6 340.3 151.8 341.8 C 151.9 343.3 152.7 344 154 344 C 155.7 344 155.9 344.3 154.9 346.3 C 154.3 347.5 154.1 349.1 154.4 349.8 C 154.7 350.4 155.5 350.8 156 350.5 C 156.6 350.2 157.2 350.5 157.5 351 C 157.8 351.6 156.9 352 155.5 352 C 154.1 352 153 351.4 153 350.8 L 153.1 349.5 L 151.5 350.8 C 150.3 351.8 149.3 351.6 146 350 C 143.8 348.9 142 348.2 142 348.5 C 142 348.8 145.3 351.5 149.3 354.6 C 153.2 357.7 157.9 360.9 159.5 361.7 L 162.5 363.2 L 165.8 359.8 C 167.6 358 169 356.1 169.1 355.5 C 169.1 355 168.4 355.2 167.5 356 C 166.1 357.3 165.9 357.3 166 355.8 C 166 354.8 166.6 353.8 167.3 353.5 C 167.9 353.3 169.7 351.5 171.3 349.5 C 173.3 346.9 173.6 346.2 172.3 346.6 C 171.3 347 172.1 345.7 174 343.8 C 175.9 341.8 177.7 340.7 178 341.2 C 178.3 341.7 179.2 341.5 180 340.7 C 180.8 339.8 182.5 339.3 183.8 339.6 C 185.2 339.9 185.7 340.4 185.3 341.3 C 184.9 341.9 186.8 340.8 189.5 338.7 C 192.3 336.6 205.1 327.9 218 319.3 C 230.9 310.7 243.8 302.3 246.5 300.5 C 249.3 298.7 254 296 257 294.6 C 260 293.1 263.5 292 264.8 292 C 266 292 267 291.6 267 291 C 267 290.5 268.1 290 269.5 290 C 270.9 290 271.8 289.6 271.5 289 C 271.2 288.5 271.5 288 272 288 C 272.6 288 273 288.7 273 289.5 C 273 290.3 273.9 291 275 291 C 276.1 291 277 291.5 277 292 C 277 292.6 277.8 292.8 278.8 292.5 C 280.1 292.1 280.5 292.6 280.5 294.4 C 280.5 295.9 277.2 301 271.5 308 C 266.6 314.2 257.2 326.3 250.7 334.9 C 244.2 343.5 234.2 357.5 228.6 366 C 222.9 374.5 215.9 385.3 213 390 C 210.1 394.7 207.1 399.5 206.3 400.8 L 205 403 L 277 403 L 349 403 L 348.8 361.8 L 348.5 320.7 L 342 318.5 C 338.4 317.3 333.7 315.2 331.5 313.8 C 329.3 312.4 325 308.7 322 305.6 C 319 302.5 314 296.4 311 292 C 308 287.7 303.9 281.3 302 277.9 C 300.1 274.5 297.2 270.9 295.5 269.8 L 292.5 268 L 292.3 270 C 292 271.8 291.8 271.8 290.5 270.5 C 289.7 269.7 288.5 266.9 287.8 264.3 L 286.7 259.5 L 289.8 255.5 C 291.5 253.3 295.1 246.6 297.8 240.5 C 300.6 234.5 303.9 225.7 305.4 221 C 306.8 216.3 309.5 208 311.4 202.5 C 314 195 315.2 189.4 316.2 180 C 316.8 173.1 317.4 160.1 317.3 151 C 317.3 139.3 316.8 132.8 315.6 128.5 C 314.8 125.2 314 120.7 314 118.5 C 314 116.3 313.4 112.7 312.6 110.5 C 311.8 108.3 309.9 101.8 308.4 96 C 306.9 90.2 303.9 81.9 301.8 77.5 C 299.7 73.1 298 69.1 298 68.5 C 298 68 294.6 63 290.5 57.5 C 286.3 52 280.3 45.3 277.1 42.5 C 273.9 39.8 269.7 36.6 267.9 35.5 C 266 34.5 262.3 32.3 259.5 30.6 C 256.2 28.7 249.7 26.5 240.5 24.3 C 232.8 22.5 221.6 19.9 215.5 18.6 C 209.5 17.3 201.4 16.2 197.5 16.1 C 193.7 16 189.8 15.8 189 15.6 Z " class="odd" fill="#464663"></path><path d="M 142.2 120.3 C 137.6 120.4 133.5 120.9 133.2 121.4 C 132.8 121.8 131 122 129.3 121.6 C 127.3 121.2 125.4 121.5 124.4 122.3 C 123.2 123.3 122.7 123.2 122.2 122.2 L 121.5 120.8 L 120 122.2 C 119.1 122.9 118.2 124.2 117.8 125 L 117.2 126.5 L 116 125 C 115.1 123.7 115 123.8 115.2 125.5 C 115.3 126.6 115.1 128.1 114.7 128.8 C 114.3 129.4 114.5 130 115 130 C 115.6 130 116 129.6 116 129 C 116 128.5 116.6 128 117.3 128 C 117.9 128 119.1 129 119.9 130.2 C 121.1 132.2 121 132.7 119.3 134 C 117.7 135.3 117.6 136.1 118.3 140 C 118.8 142.5 119.2 145.1 119.3 145.8 C 119.4 146.4 120.2 147 121 147 C 122.2 147.1 122.2 147.3 120.8 148.5 C 119.8 149.4 119.4 150.2 120 150.5 C 120.6 150.8 121.3 150.4 121.6 149.8 C 122 149.1 122.4 146.7 122.5 144.5 C 122.7 142 123.4 140.1 124.5 139.5 C 125.4 139 128.1 137.3 130.4 135.8 C 132.6 134.3 136.3 132.8 138.5 132.5 C 140.7 132.1 144.5 131.7 147 131.4 L 151.5 131 L 150 132.6 L 148.5 134.1 L 152 133.8 C 154.8 133.6 155.5 133.9 155.5 135.2 C 155.5 136.2 156 136.8 156.8 136.5 C 157.4 136.2 158 136.7 158 137.5 C 158 138.3 159.1 139.5 160.5 140 C 161.9 140.6 163.2 141.5 163.5 142 L 164 143 L 163.5 144 C 163.2 144.6 161.6 144.4 159.3 143.5 C 157.2 142.6 154.6 141.5 153.5 140.9 C 152.4 140.3 147.7 139.5 143 139.2 C 135.9 138.8 133.9 139 130.7 140.6 C 128.6 141.6 127.1 143 127.3 143.5 C 127.5 144.1 126.9 145.6 125.8 147 C 124.8 148.4 123.9 149.8 124 150.3 L 124 151 L 125.2 150.3 C 126.1 149.7 126.2 150 125.6 151.5 C 124.9 153.2 125.1 153.4 126.9 152.8 C 128.7 152.1 128.9 152.3 128.5 154.3 L 127.9 156.5 L 133 156.8 C 135.8 156.9 138 156.6 138 156 C 138 155.5 139.7 154.3 141.8 153.4 C 143.8 152.6 146.3 152.1 147.3 152.4 C 148.2 152.8 148.8 152.6 148.5 152 C 148.2 151.5 148.5 149.9 149 148.5 C 149.6 147.1 150.3 146 150.8 146 C 151.2 146 152.2 146.4 153 147 C 154.3 147.7 154.2 148.2 152.5 150 L 150.5 152.1 L 153.8 152 C 155.5 152 157.2 152.3 157.4 152.8 C 157.7 153.2 160.5 153.2 163.7 152.8 C 166.9 152.4 170.4 152.3 171.5 152.7 C 172.6 153 171.8 151.9 169.5 150.1 C 167.3 148.4 165.2 146.9 164.8 147 C 164.3 147 164 146.6 164 146 C 164 145.4 166 145.8 168.5 146.8 C 171 147.7 173 148.8 173 149.3 C 173 149.7 174.2 150 175.8 150 C 177.3 150.1 179.3 149.3 180.2 148.3 C 181.2 147.3 182 146.2 182 145.8 C 182 145.3 181.3 145 180.5 145 C 179.7 145 179 144.8 179 144.5 C 179 144.2 178.8 143.3 178.5 142.5 C 178.2 141.5 178.7 141 180 141 C 181.1 141 182.2 140.6 182.5 140 C 182.8 139.5 183.5 139 184 139 C 184.6 139 185 139.7 185 140.5 C 185 141.3 184.3 142 183.5 142 C 182.7 142 182.2 142.5 182.5 143 C 182.8 143.6 183.9 143.8 185 143.5 C 186.1 143.2 187 143.5 187 144 C 187 144.6 188.2 146.1 189.8 147.5 C 191.3 148.8 193.6 150 195 150 C 197.2 150 197.6 149.5 198.2 145.8 C 198.8 142.1 198.5 140.9 195.9 137 C 194.3 134.5 193 132.1 193 131.5 C 193 131 192.1 129.4 191.1 128 L 189.3 125.5 L 188.6 127.5 L 188 129.5 L 186.2 127.8 C 185.3 126.9 183.3 125.7 181.8 125.1 C 179.7 124.3 178.8 124.3 178.1 125.3 C 177.6 125.9 175.4 126.5 173.3 126.4 C 171.2 126.4 168.2 125.4 166.5 124.2 C 164.9 123.1 162.2 122.2 160.5 122.2 C 158.9 122.3 155.9 121.8 154 121.2 C 152.1 120.6 146.7 120.2 142.2 120.3 Z " class="odd" fill="#464663"></path><path d="M 72.5 126.8 C 71.4 126.5 69.8 126.5 69 126.8 C 68.2 127 66.5 128.2 65.2 129.4 C 64 130.5 62.5 132.6 61.9 134 C 61.3 135.4 61.1 138.6 61.4 141.3 C 61.7 143.9 62.5 146 63 146 C 63.6 146 64 145.3 64 144.5 C 64 143.7 65 142.5 66.3 141.9 C 67.6 141.2 70.7 141 74 141.4 C 77 141.7 81.3 142.3 83.5 142.6 C 85.7 142.9 88.3 143.6 89.3 144.1 C 90.2 144.6 91.2 145 91.5 145 C 91.8 145 92 144.7 92 144.3 C 92 143.8 90.5 142.7 88.5 141.8 C 86.6 140.8 85 139.7 85 139.3 C 85 138.8 83.7 137.9 82 137.3 C 79.4 136.2 79 135.5 79.3 132.6 C 79.4 130.2 79.1 129.4 78.2 129.9 C 77.5 130.2 76.4 129.8 75.7 128.9 C 75.1 128 73.6 127 72.5 126.8 Z " class="odd" fill="#464663"></path><path d="M 152 126 C 152.6 126 153 126.7 153 127.5 C 153 128.4 152.4 128.8 151.5 128.5 C 150.7 128.2 150.2 127.6 150.5 127 C 150.8 126.5 151.5 126 152 126 Z " class="even" fill="#ffffff"></path><path d="M 160.5 126 C 160.8 126 161 126.7 161 127.5 C 161 128.3 160.6 129 160 129 C 159.5 129 159.2 128.3 159.5 127.5 C 159.8 126.7 160.2 126 160.5 126 Z " class="even" fill="#ffffff"></path><path d="M 173.5 136 C 173.8 136 174.2 136.5 174.5 137 C 174.8 137.6 174.6 138 174 138 C 173.5 138 173 137.6 173 137 C 173 136.5 173.2 136 173.5 136 Z " class="even" fill="#ffffff"></path><path d="M 284 142.7 C 285.4 143 287.7 143.6 289.3 144.1 C 291.7 144.9 291.8 145.2 290.5 146.5 C 289.5 147.5 288.6 147.7 287.8 147.1 L 286.5 146.1 L 282.3 147.1 C 279.9 147.6 277.7 147.9 277.3 147.8 C 276.8 147.7 275.5 148.1 274.3 148.8 C 273 149.5 272 149.7 272 149.3 C 272 148.8 272.7 147.5 273.5 146.3 C 274.3 145 276.5 143.6 278.3 143.1 C 280 142.6 282.6 142.4 284 142.7 Z " class="even" fill="#ffffff"></path><path d="M 78.5 145.6 C 77.4 145.4 74.6 145.6 72.3 146.1 C 69.6 146.6 67.4 147.9 66.6 149.3 C 65.6 150.7 65.3 152.9 65.6 155.5 C 65.9 157.7 67.2 160.7 68.6 162.3 C 69.9 163.8 71.7 165 72.5 165 C 73.3 165 74.3 164.5 74.8 163.8 C 75.3 162.9 74.9 162.8 73.3 163.3 C 71.5 163.8 71 163.6 71 162.3 C 71 160.8 71.7 160.6 74.8 160.8 C 76.9 161 79.1 160.5 79.8 159.8 L 81.1 158.5 L 79.8 157.8 C 78.9 157.2 79 157 80.3 157 C 81.2 157 82 156.6 82 156 C 82 155.5 81.1 155 80 155 C 78.9 155 78 154.6 78 154 C 78 153.4 79.7 153.2 82 153.5 L 86 154 L 86 153.5 C 86 153.2 84.1 151.9 81.8 150.5 C 79.4 149.1 78.1 148 78.8 148 C 79.4 148 81.7 148.7 83.8 149.5 C 85.8 150.4 88 151 88.5 151 C 89.1 151 88.3 149.8 86.8 148.5 C 85.2 147.1 83.2 146 82.3 146 C 81.3 146 79.6 145.8 78.5 145.6 Z " class="odd" fill="#464663"></path><path d="M 142.5 146 C 143.3 146 144 146.5 144 147 C 144 147.6 143.3 148 142.5 148 C 141.7 148 141 147.6 141 147 C 141 146.5 141.7 146 142.5 146 Z " class="even" fill="#ffffff"></path><path d="M 195 146 C 195.6 146 196 146.2 196 146.5 C 196 146.8 195.6 147.2 195 147.5 C 194.5 147.8 194 147.6 194 147 C 194 146.5 194.5 146 195 146 Z " class="even" fill="#ffffff"></path><path d="M 294 149 C 295.1 149 297.1 150.2 298.5 151.8 C 299.9 153.3 302 157.4 303 161 C 304.2 164.9 305 170.3 305 174.5 C 305 178.4 304.3 183.5 303.5 186 C 302.6 188.5 300.9 192.8 299.6 195.5 C 298.2 198.3 295.9 201.9 294.3 203.6 C 292.8 205.4 290.4 208.9 289 211.4 C 287.6 214 286.2 216.1 285.8 216 C 285.3 216 285 215.8 285 215.5 C 285 215.2 284.7 214.4 284.4 213.8 C 284.1 213.1 285.5 210.5 287.5 208 C 289.5 205.5 292 201 293.2 198 C 294.8 193.6 295.1 191.1 294.6 185.5 C 294.3 181.7 293.3 175.1 292.4 171 C 291.5 166.9 290.2 162.4 289.5 161 C 288.8 159.6 288.4 156.8 288.6 154.8 C 288.9 152.2 289.5 151 290.5 151 C 291.3 151 292 150.6 292 150 C 292 149.5 292.9 149 294 149 Z " class="even" fill="#ffffff"></path><path d="M 135 150 C 135.6 150 136 150.5 136 151 C 136 151.6 136.2 152.7 136.5 153.5 C 136.8 154.4 136.4 155 135.5 155 C 134.6 155 134 154.1 134 152.5 C 134 151.1 134.5 150 135 150 Z " class="even" fill="#ffffff"></path><path d="M 209.5 150 C 209.2 150 208.8 150.5 208.5 151 C 208.2 151.6 208.7 152 209.5 152 C 210.3 152 210.8 151.6 210.5 151 C 210.2 150.5 209.8 150 209.5 150 Z " class="odd" fill="#464663"></path><path d="M 121.2 152.3 C 120.5 152.1 120 152.7 120 153.5 C 120 154.3 120.7 155 121.5 155 C 122.3 155 122.8 154.4 122.7 153.8 C 122.5 153.1 121.8 152.4 121.2 152.3 Z " class="odd" fill="#464663"></path><path d="M 147 153.6 C 146.7 153.3 145.8 153.5 145 154 C 144.2 154.5 143.7 155.1 144 155.4 C 144.3 155.7 145.2 155.5 146 155 C 146.8 154.5 147.3 153.9 147 153.6 Z " class="odd" fill="#464663"></path><path d="M 282.5 162 C 284.4 162 286.3 162.6 286.7 163.3 C 287 163.9 287.5 165.9 287.8 167.5 C 288 169.2 288.3 171.6 288.4 173 C 288.5 174.4 288.8 176 289.1 176.5 C 289.4 177.1 289.7 180.4 289.9 184 C 290 187.6 289.6 192.8 289.1 195.5 C 288.5 198.3 287.1 201.7 286 203.3 C 284.9 204.8 283.6 206 283 206 C 282.5 206 282 205.2 282 204.3 C 281.9 202.7 281.7 202.8 280 204.8 C 278.9 206 277.7 207 277.3 207 C 276.8 207 275.5 209.2 274.3 212 C 273 214.7 272.2 217.9 272.5 219 C 272.8 220.1 273.5 221 274 221 C 274.6 221 275.5 219.7 276 218 C 276.7 216 277.6 215.1 278.8 215.2 C 279.7 215.3 281.2 215 282 214.5 C 282.9 213.8 283.2 213.8 282.9 214.5 C 282.7 215.1 281.8 217.2 281 219.3 C 280.2 221.3 278.9 223 278.3 223 C 277.6 223 277 223.5 277 224 C 277 224.6 276.3 225 275.5 225 C 274.7 225 274 225.5 274 226 C 274 226.6 273.7 226.8 273.3 226.5 C 272.8 226.3 271.9 227.2 271.3 228.5 C 270.6 229.9 269.2 231.4 268.3 231.9 L 266.5 232.8 L 264.3 231.9 C 263 231.4 261.3 229.3 260.4 227.3 C 259.6 225.2 259 222.6 259.2 221.5 C 259.4 220.3 260.4 219.4 261.8 219.3 C 263.5 219.1 263.9 218.5 263.6 216.8 C 263.4 215.5 262.9 213 262.6 211.3 C 262.1 208.6 262.4 207.8 264.3 206.9 C 265.5 206.3 267.9 204.1 269.6 202.1 L 272.8 198.5 L 271.4 196.3 C 270.6 195 270.4 194 271 194 C 271.6 194 272 193.3 272 192.5 C 272 191.7 272.5 191 273 191 C 273.6 191 274 190.1 274 189 C 274 187.9 274.2 186.3 274.5 185.5 C 274.8 184.7 275.5 184.2 276 184.5 C 276.6 184.8 276.8 183.7 276.5 181.8 C 276.1 179.6 274.6 177.4 272.2 175.4 C 269.7 173.3 268.9 172.1 269.8 171.7 C 270.4 171.3 271.3 171.2 271.8 171.5 C 272.2 171.7 273.5 171.3 274.8 170.5 C 276 169.7 277 168.3 277 167.5 C 277 166.7 277.5 165.1 278 164 C 278.7 162.6 280 162 282.5 162 Z " class="even" fill="#ffffff"></path><path d="M 257.5 182 C 257.8 182 259.4 184.9 261 188.5 L 264 195 L 261.8 199 C 260.5 201.2 259.2 203 258.8 203 C 258.3 203 257.6 201.3 257.1 199.3 C 256.6 197.2 255.8 193.5 255.4 191 C 255 188.3 255.2 185.6 255.9 184.3 C 256.5 183 257.2 182 257.5 182 Z " class="even" fill="#ffffff"></path><path d="M 183 185 C 182.5 185 182 185.5 182 186 C 182 186.6 182.5 187 183 187 C 183.6 187 184 186.6 184 186 C 184 185.5 183.6 185 183 185 Z " class="odd" fill="#464663"></path><path d="M 119 189 C 118.5 189 117.8 190.5 117.5 192.3 C 117.2 194 115.8 196.7 114.5 198.3 L 112 201 L 109 199.5 C 107.4 198.7 103.4 197.5 100.3 196.9 C 96.3 196.2 93 196.2 89.5 196.9 C 86.8 197.5 83.6 198.9 82.5 200 C 81.4 201.1 79.2 202.3 77.5 202.6 C 75.9 203 73.5 202.7 72.3 202.1 C 70.5 201.3 70.1 201.3 70.3 202.3 C 70.5 202.9 72.1 204.2 73.8 205 C 75.6 205.8 77 207.1 77 207.8 C 77 208.5 77.8 208.8 79 208.5 C 80.3 208.2 81.1 208.5 81.3 209.7 C 81.4 210.8 82.5 211.3 84.8 211.4 C 86.5 211.5 88 211.3 88 211 C 88 210.7 90.1 210.2 92.7 209.7 C 95.4 209.3 98.9 207.9 100.5 206.6 C 102.7 204.9 104.1 204.4 106 205 C 107.4 205.3 111.3 205.4 114.7 205.1 C 119.4 204.6 121.4 203.9 123.4 202 C 124.9 200.6 126.3 198.2 126.6 196.5 C 127 194.9 126.7 192.5 126.1 191.3 C 125.5 190 124.1 189 123 189 C 121.9 189 120.8 189.6 120.6 190.3 L 120.2 191.5 L 120.1 190.3 C 120 189.6 119.6 189 119 189 Z " class="odd" fill="#464663"></path><path d="M 179.4 197.2 C 177.9 195.4 177 194.9 176.6 195.8 C 176.3 196.4 176.5 197.7 177 198.5 L 178 200 L 177 200.5 C 176.5 200.8 176 201.5 176 202 C 176 202.6 176.8 203 177.8 203 C 178.9 203 179.1 203.3 178.3 203.8 C 177.7 204.2 177.1 206.1 177.2 208 C 177.2 209.9 177.3 212.2 177.5 213 C 177.7 213.8 179.3 215.2 181 216 L 184.2 217.5 L 185.1 216 C 185.6 215.2 186 214.2 186 213.8 C 186 213.3 185.3 213 184.5 213 C 183.4 213 183 211.7 182.9 207.8 C 182.8 204.9 182.9 201.6 183 200.5 C 183.1 199.4 182.8 198.8 182.3 199.2 C 181.9 199.6 180.5 198.7 179.4 197.2 Z " class="odd" fill="#464663"></path><path d="M 185.2 219.3 C 184.8 218.6 184.1 219.1 183.2 220.8 C 182.5 222.3 182 224.1 182 224.8 C 182 225.4 182.5 225.8 183 225.5 C 183.6 225.2 184 224.1 184 223 C 184 221.9 184.4 220.9 185 220.8 C 185.5 220.6 185.6 220 185.2 219.3 Z " class="odd" fill="#464663"></path><path d="M 186 226.5 C 185.7 226.2 185.2 226.3 184.7 226.8 C 184.3 227.2 183.9 228 184 228.5 C 184 229.1 184.5 228.9 185.2 228.3 C 185.9 227.6 186.3 226.8 186 226.5 Z " class="odd" fill="#464663"></path><path d="M 120 229.8 C 117.5 229.4 116.1 229.3 116.8 229.6 C 117.4 229.8 118 230.5 118 231 C 118 231.6 117.7 231.9 117.3 231.9 L 116.5 231.8 L 111.3 231.9 C 108.4 231.9 106 232.5 106 233 C 106 233.6 106.7 233.8 107.5 233.5 C 108.3 233.2 109.6 233.4 110.3 233.9 C 110.9 234.3 114.3 235.3 117.7 236.1 L 124 237.5 L 121.7 238.7 L 119.5 239.8 L 122 240.5 C 123.4 240.9 125.4 241 126.5 240.8 C 127.6 240.6 128.4 239.8 128.3 239.2 C 128.1 238.5 128.5 238 129 238 C 129.6 238 130.2 238.5 130.5 239 C 130.8 239.6 133.9 240 137.5 240 C 141.1 240 144.2 239.6 144.5 239 C 144.8 238.5 143.8 237.2 142.3 236.2 C 140.7 235.2 138.6 234 137.5 233.5 C 136.4 233.1 135.1 232.8 134.5 232.9 C 134 233 133.1 232.5 132.5 231.8 C 132 231.1 129.9 230.5 128 230.5 C 126.1 230.5 122.5 230.2 120 229.8 Z " class="odd" fill="#464663"></path><path d="M 103.3 232.1 C 102.8 232.2 99.8 232.8 96.5 233.4 C 93.2 234 91 234.8 91.5 235.1 C 92.1 235.5 95.1 235.2 98.3 234.6 C 101.4 234 104 233.2 104 232.8 C 104 232.3 103.7 232.1 103.3 232.1 Z " class="odd" fill="#464663"></path><path d="M 73.7 233.8 L 73.4 232.5 L 72.7 233.8 C 72.3 234.4 72.8 237 73.8 239.5 C 74.7 242 75.8 244.1 76.3 244 C 76.7 244 77 243.4 77 242.8 C 77 242.1 78 240.5 79.2 239.3 C 80.5 238 82.1 237 82.8 237 C 83.4 237 84 236.6 84 236 C 84 235.5 83 235.1 81.8 235.3 C 80.5 235.5 78.9 235.9 78.3 236.3 C 77.6 236.7 77 236.6 77 236 C 77 235.5 76.3 235 75.5 235 C 74.7 235 73.9 234.4 73.7 233.8 Z " class="odd" fill="#464663"></path><path d="M 196 330.5 C 196.6 330.8 196.8 331.5 196.5 332 C 196.2 332.6 195.6 333 195 333 C 194.5 333 194.2 332.3 194.5 331.5 C 194.8 330.7 195.5 330.2 196 330.5 Z " class="even" fill="#ffffff"></path><path d="M 135 331.5 C 136.1 331.8 136.8 332.5 136.5 333 C 136.2 333.6 135.4 333.5 134.5 332.8 C 133.6 332.1 132.9 331.4 133 331.3 C 133 331.1 133.9 331.2 135 331.5 Z " class="even" fill="#ffffff"></path><path d="M 191.8 334 C 191.9 334 192 334.2 192 334.5 C 192 334.8 190.7 335.9 189 337 C 187.4 338.1 186 338.7 186 338.3 C 186 337.8 187.2 336.7 188.7 335.8 C 190.3 334.8 191.6 334 191.8 334 Z " class="even" fill="#ffffff"></path><path d="M 150 344 C 149.5 344 149.2 344.5 149.5 345 C 149.8 345.6 150.5 346 151 346 C 151.6 346 151.8 345.6 151.5 345 C 151.2 344.5 150.6 344 150 344 Z " class="odd" fill="#464663"></path><path d="M 181 344 C 180.5 344 179.8 344.5 179.5 345 C 179.2 345.6 179.7 345.8 180.5 345.5 C 181.3 345.2 182 344.8 182 344.5 C 182 344.2 181.6 344 181 344 Z " class="odd" fill="#464663"></path><path d="M 157 347 C 157.6 347 158 347.2 158 347.5 C 158 347.8 157.6 348.2 157 348.5 C 156.5 348.8 156 348.6 156 348 C 156 347.5 156.5 347 157 347 Z " class="even" fill="#ffffff"></path><path d="M 123.3 353 C 122.8 353.1 116.7 355.5 109.5 358.4 C 102.4 361.3 87.4 367.6 76.3 372.3 C 65.1 377.1 46.4 385.9 34.8 392 L 13.5 403 L 65.5 403 L 117.5 403 L 119.2 394.3 C 120.2 389.4 121.7 379.2 122.5 371.5 C 123.3 363.8 124 356.5 124 355.3 C 124 354 123.7 353 123.3 353 Z " class="odd" fill="#464663"></path><path d="M 154.8 365 C 154.6 364.4 151.6 365.4 148 367.2 C 144.4 369 138.6 373.2 135.1 376.5 C 131.6 379.8 127.6 384.8 126.2 387.5 C 124.9 390.3 123.5 394.9 123.1 397.8 L 122.5 403 L 126.2 402.8 C 128.2 402.6 129.6 402.2 129.4 401.8 C 129.2 401.3 129.5 400.3 130 399.5 C 130.6 398.7 130.8 397.6 130.5 397 C 130.2 396.5 130.8 394.7 131.8 393.1 L 133.5 390.2 L 131.5 388.1 C 130.4 386.9 129.8 385.7 130.2 385.2 C 130.7 384.8 131.9 385.5 133 386.8 C 134.8 388.8 135.2 388.8 136.5 387.5 C 137.8 386.2 137.8 385.8 136 383.8 C 134.9 382.5 134.2 381.3 134.4 381 C 134.6 380.7 136.5 379.7 138.6 378.6 C 140.8 377.6 144.3 376.6 146.5 376.4 C 148.7 376.2 151 375.5 151.5 374.9 C 152.2 374 151.8 373.9 149.8 374.4 C 148.2 374.7 147 374.7 147 374.3 C 147 373.8 148.8 371.8 151 369.8 C 153.2 367.7 154.9 365.5 154.8 365 Z " class="odd" fill="#464663"></path><path d="M 159 371 C 157.6 371.1 155.6 371.5 154.5 372.1 C 152.8 373.1 152.7 373.4 154 374.1 C 155 374.7 155.1 375 154.3 375 C 153.6 375 153 375.5 153 376 C 153 376.6 153.3 377 153.8 377 C 154.2 377 155.2 376.5 156 376 L 157.5 375 L 156 374 C 154.9 373.3 155.5 373.1 158.2 373.3 C 160.3 373.4 162 373.8 162 374.3 C 162 374.7 161.3 375 160.5 375 C 159.7 375 158.7 375.7 158.3 376.6 C 157.8 377.6 158.1 378.5 159 379.1 C 159.8 379.6 161 380 161.5 380 C 162.1 380 161.8 379.5 161 379 C 160 378.4 159.8 377.7 160.5 377 C 161.2 376.2 161.9 376.3 163 377.3 C 164 378.3 165 378.5 166 377.9 C 167.3 377.2 167.2 377 165.8 377 C 164.8 377 163.9 376.4 163.9 375.8 C 163.8 375.1 163.8 374.1 163.9 373.5 C 164 373 163.5 372.2 162.8 371.8 C 162.1 371.4 160.4 371 159 371 Z " class="odd" fill="#464663"></path><path d="M 169 375 C 168.5 375 168 375.5 168 376 C 168 376.6 168.5 377 169 377 C 169.6 377 170 377.5 170 378 C 170 378.6 169.1 379.2 168 379.5 L 166 380 L 168 382 L 170 384 L 172 382.5 C 173.1 381.7 173.6 380.8 173 380.5 C 172.5 380.2 171.6 378.9 171 377.5 C 170.5 376.1 169.6 375 169 375 Z " class="odd" fill="#464663"></path><path d="M 156 378 C 155.5 378 155 378.1 155 378.3 C 154.9 378.4 155.6 379.2 156.5 380 C 158 381.3 158.1 381.3 157.6 379.8 C 157.3 378.8 156.6 378 156 378 Z " class="odd" fill="#464663"></path><path d="M 139 380 C 138.5 380 138 380.5 138 381 C 138 381.6 138.5 381.8 139 381.5 C 139.6 381.2 140 380.8 140 380.5 C 140 380.2 139.6 380 139 380 Z " class="odd" fill="#464663"></path><path d="M 143 380.5 C 142.5 380.2 142 380.5 142 381 C 142 381.6 142.5 382.2 143 382.5 C 143.6 382.8 144 382.6 144 382 C 144 381.5 143.6 380.8 143 380.5 Z " class="odd" fill="#464663"></path><path d="M 153.6 381.4 L 152.5 380.3 L 150.7 381.4 C 149.3 382.3 149.2 382.7 150.2 383.7 L 151.5 384.8 L 153.1 383.7 C 154.3 382.8 154.4 382.2 153.6 381.4 Z " class="odd" fill="#464663"></path><path d="M 176.8 380 C 175.8 380 175.8 380.2 176.8 381.2 C 177.5 381.9 178 382.8 178 383.3 C 178 383.7 177.6 383.8 177 383.5 C 176.5 383.2 174.9 383.6 173.5 384.3 L 171.1 385.5 L 172.8 386.7 C 173.7 387.3 174.2 388.2 173.8 388.7 C 173.3 389.1 172.2 388.7 171.3 387.7 C 169.7 386.2 169.1 386.1 166.8 387.2 L 164.1 388.5 L 165.8 389.7 C 166.7 390.3 167.2 391.2 166.8 391.7 C 166.3 392.1 165.1 391.7 164 390.8 C 162.3 389.3 161.7 389.2 160.1 390.3 C 158.5 391.2 158.4 391.8 159.3 392.8 C 160 393.5 160.2 394.4 159.8 394.8 C 159.3 395.2 158.1 394.7 157 393.8 C 155.4 392.4 154.6 392.2 153.3 393.2 C 151.7 394.2 151.7 394.5 153 396.1 C 154 397.3 155 397.6 156 397 C 156.8 396.5 161 394.8 165.3 393.1 C 169.5 391.4 173.3 390 173.8 390 C 174.2 389.9 173.8 390.6 173 391.5 C 172.2 392.4 170.8 393.1 170 393 C 168.8 393 169 393.4 170.5 395 C 171.6 396.1 172.1 397 171.5 397 C 171 397 169.7 396.3 168.8 395.5 C 167.3 394.3 166.6 394.2 165.1 395.3 C 163.5 396.2 163.4 396.8 164.3 397.8 C 165 398.5 165.1 399.4 164.7 399.8 C 164.2 400.2 163.2 399.7 162.4 398.8 C 161.5 397.6 160.1 397.2 158.5 397.5 C 157.1 397.8 156 398.3 156 398.8 C 156 399.2 156.6 400.2 157.3 401.1 C 158.3 402.4 161.2 402.7 174 402.9 L 189.5 403.1 L 191.5 399.8 C 192.5 398 194.3 395.8 195.5 394.9 L 197.5 393.3 L 190 388.1 C 185.9 385.2 181.5 382.7 180.3 382.4 C 179 382.2 178 381.6 178 381 C 178 380.5 177.4 380 176.8 380 Z " class="odd" fill="#464663"></path><path d="M 163.8 381.1 C 163.6 381.2 162.5 381.7 161.3 382.3 L 159.1 383.5 L 160.8 384.6 C 161.7 385.3 163.6 385.5 165 385.3 L 167.5 384.7 L 165.8 382.9 C 164.8 381.8 163.9 381 163.8 381.1 Z " class="odd" fill="#464663"></path><path d="M 140.5 382 C 140.2 382 140 382.5 140 383 C 140 383.6 140.5 384 141 384 C 141.6 384 141.8 383.6 141.5 383 C 141.2 382.5 140.8 382 140.5 382 Z " class="odd" fill="#464663"></path><path d="M 132.5 383 C 132.8 383 133.7 383.7 134.5 384.5 C 135.3 385.3 135.8 386.2 135.5 386.5 C 135.2 386.8 134.3 386.3 133.5 385.5 C 132.7 384.7 132 383.8 132 383.5 C 132 383.2 132.2 383 132.5 383 Z " class="even" fill="#ffffff"></path><path d="M 164 383 C 164.6 383 165 383.2 165 383.5 C 165 383.8 164.6 384.2 164 384.5 C 163.5 384.8 163 384.6 163 384 C 163 383.5 163.5 383 164 383 Z " class="even" fill="#ffffff"></path><path d="M 158.5 385.8 L 156.5 384.2 L 154.5 385.7 L 152.5 387.3 L 154.5 386.5 C 156 386 156.3 386.1 155.9 387.1 C 155.4 388.2 156.1 388.4 158.4 388.2 C 160.1 388 161.3 387.8 161 387.7 C 160.7 387.6 159.6 386.7 158.5 385.8 Z " class="odd" fill="#464663"></path><path d="M 179 384 C 179.6 384 180.4 384.8 181 385.8 C 181.7 387.1 181.4 387.8 179.5 389 C 178.1 389.8 176.7 390.1 176.3 389.7 C 175.8 389.3 176.5 388.7 177.8 388.5 C 179 388.2 180 387.6 180 387 C 180 386.5 179.6 386 179 386 C 178.5 386 178 385.6 178 385 C 178 384.5 178.5 384 179 384 Z " class="even" fill="#ffffff"></path><path d="M 147 385 C 146.5 385 146 385.5 146 386 C 146 386.6 146.5 386.8 147 386.5 C 147.6 386.2 148 385.8 148 385.5 C 148 385.2 147.6 385 147 385 Z " class="odd" fill="#464663"></path><path d="M 150.5 388 C 150 388 148.8 388.4 148 388.9 C 147.2 389.4 146.8 390.3 147.3 390.9 C 147.7 391.5 148.6 392 149.3 392 C 149.9 392 150.2 391.7 149.8 391.3 C 149.3 390.9 149.6 389.9 150.3 389.2 C 150.9 388.5 151.1 387.9 150.5 388 Z " class="odd" fill="#464663"></path><path d="M 145.3 392.1 C 144.1 391.5 142.9 391.6 141.7 392.3 C 140.2 393.4 140.1 393.6 141.5 394.8 C 142.7 395.8 143.1 395.7 143.5 394.5 C 143.8 393.7 144.7 393.2 145.5 393.5 L 147 394 L 147 393.5 C 147 393.2 146.2 392.6 145.3 392.1 Z " class="odd" fill="#464663"></path><path d="M 138.3 395.7 C 136.8 395 136.7 395.1 137.7 396.2 C 138.4 396.9 139.2 397.3 139.5 397 C 139.8 396.7 139.2 396.1 138.3 395.7 Z " class="odd" fill="#464663"></path><path d="M 148.7 396.3 C 148.5 394.8 148.2 394.8 147.2 396.8 C 146.4 398.2 146.4 399.2 147 399.5 L 148 400 L 150 399.5 C 151.1 399.2 151.8 398.6 151.5 398 C 151.2 397.5 150.6 397.2 150 397.5 C 149.5 397.8 148.9 397.2 148.7 396.3 Z " class="odd" fill="#464663"></path><path d="M 142.5 399.1 C 142 399.1 140.6 399.7 139.5 400.4 L 137.5 401.8 L 139.3 402.4 C 140.2 402.7 142 402.5 143.3 402 L 145.5 400.9 L 143.3 401.5 C 142 401.8 141 401.6 141 401 C 141 400.5 141.6 399.8 142.3 399.6 C 142.9 399.3 143.1 399.1 142.5 399.1 Z " class="odd" fill="#464663"></path><path d="M 170 399 C 170.6 399 170.8 399.5 170.5 400 C 170.2 400.6 169.6 401 169 401 C 168.5 401 168.2 400.6 168.5 400 C 168.8 399.5 169.5 399 170 399 Z " class="even" fill="#ffffff"></path><path d="M 132 400 C 131.5 400 131 400.5 131 401 C 131 401.6 131.5 402 132 402 C 132.6 402 133 401.6 133 401 C 133 400.5 132.6 400 132 400 Z " class="odd" fill="#464663"></path><path d="M 154.3 400 C 153.8 400.1 152.4 400.7 151 401.5 L 148.5 402.9 L 152.3 403 C 155.1 403 155.9 402.7 155.5 401.5 C 155.2 400.7 154.7 400 154.3 400 Z " class="odd" fill="#464663"></path></g></svg>